<svg version="1.2" baseProfile="tiny-ps" xmlns="http://www.w3.org/2000/svg" viewBox="0 0 256 256" width="256" height="256">
	<title>rayo</title>
	<style>
		tspan { white-space:pre }
		.s0 { fill: #ffbb00 } 
	</style>
	<path class="s0" d="m187.75 67.14c1.75 0 3.32 0.69 4.7 2.06c1.66 1.83 1.98 3.85 0.97 6.05l-74.71 159.02c-1.2 2.29-3.14 3.44-5.81 3.44c-0.37 0-1.02-0.09-1.94-0.27c-1.57-0.46-2.75-1.33-3.53-2.61c-0.78-1.28-0.99-2.66-0.62-4.12l27.26-111.05l-56.17 13.88c-0.37 0.09-0.92 0.14-1.66 0.14c-1.66 0-3.09-0.5-4.29-1.51c-1.66-1.37-2.26-3.16-1.8-5.36l27.81-113.39c0.37-1.28 1.11-2.34 2.21-3.16c1.11-0.82 2.4-1.24 3.87-1.24h45.38c1.75 0 3.23 0.57 4.43 1.72c1.2 1.15 1.8 2.5 1.8 4.05c0 0.73-0.23 1.56-0.69 2.47l-23.66 63.64l54.79-13.47c0.74-0.18 1.29-0.27 1.66-0.27v0z" />
</svg>